<?xml version="1.0" encoding="UTF-8" standalone="no"?>
<!-- Created with Inkscape (http://www.inkscape.org/) -->

<svg
   width="256"
   height="256"
   viewBox="0 0 67.733332 67.733333"
   version="1.1"
   id="svg5"
   xmlns:xlink="http://www.w3.org/1999/xlink"
   xmlns="http://www.w3.org/2000/svg"
   xmlns:svg="http://www.w3.org/2000/svg">
  <defs
     id="defs2">
    <linearGradient
       id="linearGradient1614">
      <stop
         style="stop-color:#552200;stop-opacity:1;"
         offset="0"
         id="stop1610" />
      <stop
         style="stop-color:#004da3;stop-opacity:0.60049897;"
         offset="1"
         id="stop1612" />
    </linearGradient>
    <linearGradient
       xlink:href="#linearGradient1614"
       id="linearGradient1616"
       x1="14.091476"
       y1="73.71209"
       x2="64.695236"
       y2="1.852549"
       gradientUnits="userSpaceOnUse" />
    <linearGradient
       id="a"
       gradientUnits="userSpaceOnUse"
       x1="12"
       x2="116"
       y1="55.999901"
       y2="55.999901">
      <stop
         offset="0"
         stop-color="#babdb6"
         id="stop3107" />
      <stop
         offset="0.0416667"
         stop-color="#f6f5f4"
         id="stop3109" />
      <stop
         offset="0.0833333"
         stop-color="#d5d3cf"
         id="stop3111" />
      <stop
         offset="0.916667"
         stop-color="#deddda"
         id="stop3113" />
      <stop
         offset="0.958333"
         stop-color="#f6f5f4"
         id="stop3115" />
      <stop
         offset="1"
         stop-color="#babdb6"
         id="stop3117" />
    </linearGradient>
    <clipPath
       id="b">
      <path
         d="m 24,96 h 81 v 28 H 24 Z m 0,0"
         id="path3120" />
    </clipPath>
    <clipPath
       id="c">
      <path
         d="M -5.238281,96 H 150.76172 c 1.10547,0 2,0.894531 2,2 v 38 c 0,1.10547 -0.89453,2 -2,2 H -5.238281 c -1.105469,0 -2,-0.89453 -2,-2 V 98 c 0,-1.105469 0.894531,-2 2,-2 z m 0,0"
         id="path3123" />
    </clipPath>
    <clipPath
       id="d">
      <path
         d="m 24,96 h 81 v 26 H 24 Z m 0,0"
         id="path3126" />
    </clipPath>
    <clipPath
       id="e">
      <path
         d="M -5.238281,96 H 150.76172 c 1.10547,0 2,0.894531 2,2 v 38 c 0,1.10547 -0.89453,2 -2,2 H -5.238281 c -1.105469,0 -2,-0.89453 -2,-2 V 98 c 0,-1.105469 0.894531,-2 2,-2 z m 0,0"
         id="path3129" />
    </clipPath>
    <clipPath
       id="f">
      <path
         d="m 26,96 h 77 v 24 H 26 Z m 0,0"
         id="path3132" />
    </clipPath>
    <clipPath
       id="g">
      <path
         d="M -5.238281,96 H 150.76172 c 1.10547,0 2,0.894531 2,2 v 38 c 0,1.10547 -0.89453,2 -2,2 H -5.238281 c -1.105469,0 -2,-0.89453 -2,-2 V 98 c 0,-1.105469 0.894531,-2 2,-2 z m 0,0"
         id="path3135" />
    </clipPath>
    <linearGradient
       id="a-3"
       gradientTransform="matrix(0.955178,0,0,0.955175,2.762901,9.024742)"
       gradientUnits="userSpaceOnUse"
       x1="0"
       x2="128"
       y1="88"
       y2="88">
      <stop
         offset="0"
         stop-color="#3d3846"
         id="stop5526" />
      <stop
         offset="0.109375"
         stop-color="#9a9996"
         id="stop5528" />
      <stop
         offset="0.235497"
         stop-color="#5e5c64"
         id="stop5530" />
      <stop
         offset="0.765625"
         stop-color="#5e5c64"
         id="stop5532" />
      <stop
         offset="0.890625"
         stop-color="#9a9996"
         id="stop5534" />
      <stop
         offset="1"
         stop-color="#3d3846"
         id="stop5536" />
    </linearGradient>
    <linearGradient
       id="c-6"
       gradientTransform="matrix(0,-1.335685,-1.33569,0,414.26519,140.75243)"
       x1="38"
       x2="50"
       xlink:href="#b-7"
       y1="248"
       y2="248" />
    <linearGradient
       id="b-7"
       gradientUnits="userSpaceOnUse">
      <stop
         offset="0"
         stop-color="#9a9996"
         id="stop5539" />
      <stop
         offset="1"
         stop-color="#9a9996"
         stop-opacity="0"
         id="stop5541" />
    </linearGradient>
    <linearGradient
       id="d-5"
       gradientTransform="matrix(0,-1.335685,-1.33569,0,375.23338,140.75243)"
       x1="38"
       x2="50"
       xlink:href="#b-7"
       y1="248"
       y2="248" />
    <clipPath
       id="a-35">
      <path
         d="m 26,6 h 76 V 123 H 26 Z m 0,0"
         id="path6256" />
    </clipPath>
    <clipPath
       id="b-6">
      <path
         d="M 63.984375,3.710938 C 42.941406,3.710938 26,20.65625 26,41.707031 V 86.511719 C 26,107.625 42.949219,124.625 64,124.625 c 21.050781,0 38,-17 38,-38.113281 V 46.660156 c 0,-0.476562 -0.0117,-0.949218 -0.0312,-1.421875 v -3.53125 c 0,-21.050781 -16.941406,-37.996093 -37.984375,-37.996093 z m 0,0"
         id="path6259" />
    </clipPath>
    <linearGradient
       id="c-2"
       gradientTransform="matrix(3.328982,0,0,3.274149,-802.95209,-509.83807)"
       gradientUnits="userSpaceOnUse"
       x1="250.34953"
       x2="269.73178"
       y1="190.47014"
       y2="190.47014">
      <stop
         offset="0"
         stop-color="#c0bfbc"
         id="stop6262" />
      <stop
         offset="0.520393"
         stop-color="#deddda"
         id="stop6264" />
      <stop
         offset="1"
         stop-color="#9a9996"
         id="stop6266" />
    </linearGradient>
    <clipPath
       id="d-9">
      <path
         d="m 26,3 h 76 V 116 H 26 Z m 0,0"
         id="path6269" />
    </clipPath>
    <clipPath
       id="e-1">
      <path
         d="M 63.984375,3.710938 C 42.941406,3.710938 26,20.65625 26,41.707031 V 86.511719 C 26,107.625 42.949219,124.625 64,124.625 c 21.050781,0 38,-17 38,-38.113281 V 46.660156 c 0,-0.476562 -0.0117,-0.949218 -0.0312,-1.421875 v -3.53125 c 0,-21.050781 -16.941406,-37.996093 -37.984375,-37.996093 z m 0,0"
         id="path6272" />
    </clipPath>
    <radialGradient
       id="f-2"
       cx="260.46417"
       cy="168.52756"
       gradientTransform="matrix(3.759806,0,0,4.911226,-915.08006,-791.51945)"
       gradientUnits="userSpaceOnUse"
       r="11.410563">
      <stop
         offset="0"
         stop-color="#f6f5f4"
         id="stop6275" />
      <stop
         offset="1"
         stop-color="#c0bfbc"
         id="stop6277" />
    </radialGradient>
    <clipPath
       id="g-7">
      <path
         d="m 62,3 h 2 v 16 h -2 z m 0,0"
         id="path6280" />
    </clipPath>
    <clipPath
       id="h">
      <path
         d="M 63.984375,3.710938 C 42.941406,3.710938 26,20.65625 26,41.707031 V 86.511719 C 26,107.625 42.949219,124.625 64,124.625 c 21.050781,0 38,-17 38,-38.113281 V 46.660156 c 0,-0.476562 -0.0117,-0.949218 -0.0312,-1.421875 v -3.53125 c 0,-21.050781 -16.941406,-37.996093 -37.984375,-37.996093 z m 0,0"
         id="path6283" />
    </clipPath>
    <clipPath
       id="i">
      <path
         d="m 64,3 h 2 v 16 h -2 z m 0,0"
         id="path6286" />
    </clipPath>
    <clipPath
       id="j">
      <path
         d="M 63.984375,3.710938 C 42.941406,3.710938 26,20.65625 26,41.707031 V 86.511719 C 26,107.625 42.949219,124.625 64,124.625 c 21.050781,0 38,-17 38,-38.113281 V 46.660156 c 0,-0.476562 -0.0117,-0.949218 -0.0312,-1.421875 v -3.53125 c 0,-21.050781 -16.941406,-37.996093 -37.984375,-37.996093 z m 0,0"
         id="path6289" />
    </clipPath>
    <clipPath
       id="k">
      <path
         d="M 56,16 H 72 V 58 H 56 Z m 0,0"
         id="path6292" />
    </clipPath>
    <clipPath
       id="l">
      <path
         d="M 63.984375,3.710938 C 42.941406,3.710938 26,20.65625 26,41.707031 V 86.511719 C 26,107.625 42.949219,124.625 64,124.625 c 21.050781,0 38,-17 38,-38.113281 V 46.660156 c 0,-0.476562 -0.0117,-0.949218 -0.0312,-1.421875 v -3.53125 c 0,-21.050781 -16.941406,-37.996093 -37.984375,-37.996093 z m 0,0"
         id="path6295" />
    </clipPath>
    <clipPath
       id="m">
      <path
         d="M 59,17 H 69 V 28 H 59 Z m 0,0"
         id="path6298" />
    </clipPath>
    <clipPath
       id="n">
      <path
         d="M 63.984375,3.710938 C 42.941406,3.710938 26,20.65625 26,41.707031 V 86.511719 C 26,107.625 42.949219,124.625 64,124.625 c 21.050781,0 38,-17 38,-38.113281 V 46.660156 c 0,-0.476562 -0.0117,-0.949218 -0.0312,-1.421875 v -3.53125 c 0,-21.050781 -16.941406,-37.996093 -37.984375,-37.996093 z m 0,0"
         id="path6301" />
    </clipPath>
    <clipPath
       id="a-0">
      <path
         d="m 41,70 h 46 v 52 H 41 Z m 0,0"
         id="path7450" />
    </clipPath>
    <clipPath
       id="b-9">
      <path
         d="M 40.402344,54.339844 H 87.824219 V 122.82422 H 40.402344 Z M 76.3125,97.074219 c 0,-6.742188 -5.453125,-12.210938 -12.183594,-12.210938 -6.726562,0 -12.183594,5.46875 -12.183594,12.210938 0,6.742191 5.457032,12.210941 12.183594,12.210941 6.730469,0 12.183594,-5.46875 12.183594,-12.210941 z m 0,0"
         id="path7453" />
    </clipPath>
    <linearGradient
       id="c-3"
       gradientTransform="matrix(0.164687,0,0,0.165054,-25.111408,-9.834853)"
       gradientUnits="userSpaceOnUse"
       x1="403.49603"
       x2="678.90881"
       y1="793.56555"
       y2="793.56555">
      <stop
         offset="0"
         stop-color="#9a9996"
         id="stop7456" />
      <stop
         offset="0.0414257"
         stop-color="#c0bfbc"
         id="stop7458" />
      <stop
         offset="0.0815191"
         stop-color="#9a9996"
         id="stop7460" />
      <stop
         offset="0.899024"
         stop-color="#77767b"
         id="stop7462" />
      <stop
         offset="0.952865"
         stop-color="#c0bfbc"
         id="stop7464" />
      <stop
         offset="1"
         stop-color="#77767b"
         id="stop7466" />
    </linearGradient>
    <clipPath
       id="d-6">
      <path
         d="m 41,68 h 46 v 52 H 41 Z m 0,0"
         id="path7469" />
    </clipPath>
    <clipPath
       id="e-0">
      <path
         d="M 40.402344,54.339844 H 87.824219 V 122.82422 H 40.402344 Z M 76.3125,97.074219 c 0,-6.742188 -5.453125,-12.210938 -12.183594,-12.210938 -6.726562,0 -12.183594,5.46875 -12.183594,12.210938 0,6.742191 5.457032,12.210941 12.183594,12.210941 6.730469,0 12.183594,-5.46875 12.183594,-12.210941 z m 0,0"
         id="path7472" />
    </clipPath>
    <clipPath
       id="f-6">
      <path
         d="m 41,55 h 46 v 54 H 41 Z m 0,0"
         id="path7475" />
    </clipPath>
    <clipPath
       id="g-2">
      <path
         d="M 40.402344,54.339844 H 87.824219 V 122.82422 H 40.402344 Z M 76.3125,97.074219 c 0,-6.742188 -5.453125,-12.210938 -12.183594,-12.210938 -6.726562,0 -12.183594,5.46875 -12.183594,12.210938 0,6.742191 5.457032,12.210941 12.183594,12.210941 6.730469,0 12.183594,-5.46875 12.183594,-12.210941 z m 0,0"
         id="path7478" />
    </clipPath>
    <linearGradient
       id="h-6"
       gradientTransform="matrix(0.299808,0,0,0.300475,-270.58579,35.155126)"
       gradientUnits="userSpaceOnUse"
       x1="928.74152"
       x2="1302.4905"
       y1="216.63861"
       y2="216.63861">
      <stop
         offset="0"
         stop-color="#3d3846"
         id="stop7481" />
      <stop
         offset="0.0279595"
         stop-color="#79718e"
         id="stop7483" />
      <stop
         offset="0.0654033"
         stop-color="#4e475a"
         id="stop7485" />
      <stop
         offset="0.938181"
         stop-color="#716881"
         id="stop7487" />
      <stop
         offset="0.971878"
         stop-color="#847a96"
         id="stop7489" />
      <stop
         offset="1"
         stop-color="#3d3846"
         id="stop7491" />
    </linearGradient>
    <linearGradient
       id="i-1"
       gradientTransform="matrix(0.45451,0,0,0.455522,-1210.2921,616.17261)"
       gradientUnits="userSpaceOnUse"
       x1="2704.4631"
       x2="2868.1685"
       y1="-1148.1874"
       y2="-1311.5292">
      <stop
         offset="0"
         stop-color="#1c71d8"
         id="stop7494" />
      <stop
         offset="1"
         stop-color="#62a0ea"
         id="stop7496" />
    </linearGradient>
    <radialGradient
       id="a-8"
       cx="-1298.1434"
       cy="-403.16449"
       gradientTransform="matrix(1.087387,0,0,-1.087387,1474.072,-385.63801)"
       gradientUnits="userSpaceOnUse"
       r="60.125">
      <stop
         offset="0"
         stop-color="#f6f5f4"
         stop-opacity="0.945098"
         id="stop8198" />
      <stop
         offset="0.645993"
         stop-color="#ffffff"
         id="stop8200" />
      <stop
         offset="1"
         stop-color="#d3cfca"
         id="stop8202" />
    </radialGradient>
    <radialGradient
       id="b-79"
       cx="310.76691"
       cy="-1.73383"
       gradientTransform="matrix(1.426383,0,0,-1.426383,-392.36702,46.804292)"
       gradientUnits="userSpaceOnUse"
       r="49.999992">
      <stop
         offset="0"
         stop-color="#c061cb"
         id="stop8205" />
      <stop
         offset="1"
         stop-color="#ed333b"
         id="stop8207" />
    </radialGradient>
    <radialGradient
       id="c-20"
       cx="296"
       cy="-63.300095"
       gradientTransform="matrix(0.578507,0,0,-0.578507,-107.23821,47.606445)"
       gradientUnits="userSpaceOnUse"
       r="49.999992">
      <stop
         offset="0"
         stop-color="#5e5c64"
         id="stop8210" />
      <stop
         offset="1"
         stop-color="#241f31"
         id="stop8212" />
    </radialGradient>
    <radialGradient
       id="d-2"
       cx="392.67242"
       cy="1296.2365"
       gradientUnits="userSpaceOnUse"
       r="71.66658">
      <stop
         offset="0"
         stop-color="#cecdd1"
         id="stop8215" />
      <stop
         offset="1"
         stop-color="#5e5c64"
         stop-opacity="0.839216"
         id="stop8217" />
    </radialGradient>
  </defs>
  <g
     id="layer1">
    <rect
       style="fill:url(#linearGradient1616);stroke-width:0.25;stroke:#ffffff;stroke-opacity:1;stroke-dasharray:none;fill-opacity:1"
       id="rect172"
       width="65.980339"
       height="65.777374"
       x="1.0039215"
       y="1.0777074"
       rx="2"
       ry="2" />
  </g>
  <g
     id="layer2" />
  <g
     id="layer3">
    <g
       id="g3183"
       transform="matrix(0.08113447,0.05038193,-0.05038193,0.08113447,48.576132,10.840621)">
      <path
         d="m 20,24 h 88 c 4.41797,0 8,3.582031 8,8 v 68 c 0,4.41797 -3.58203,8 -8,8 H 20 c -4.417969,0 -8,-3.58203 -8,-8 V 32 c 0,-4.417969 3.582031,-8 8,-8 z m 0,0"
         fill="url(#a)"
         id="path3138"
         style="fill:url(#a)" />
      <path
         d="m 20,4 h 88 c 4.41797,0 8,3.582031 8,8 v 70 c 0,4.417969 -3.58203,8 -8,8 H 20 c -4.417969,0 -8,-3.582031 -8,-8 V 12 c 0,-4.417969 3.582031,-8 8,-8 z m 0,0"
         fill="#f6f5f4"
         id="path3140" />
      <path
         d="m 20,4 c -4.433594,0 -8,3.566406 -8,8 V 78 H 116 V 12 c 0,-4.433594 -3.56641,-8 -8,-8 z m 0,0"
         fill="#ffa348"
         id="path3142" />
      <path
         d="m 26.761719,94 h 76.000001 c 1.10547,0 2,0.894531 2,2 0,1.105469 -0.89453,2 -2,2 H 26.761719 c -1.105469,0 -2,-0.894531 -2,-2 0,-1.105469 0.894531,-2 2,-2 z m 0,0"
         fill="#3d3846"
         id="path3144" />
      <g
         clip-path="url(#b)"
         id="g3150">
        <g
           clip-path="url(#c)"
           id="g3148">
          <path
             d="m 64.761719,44 c -22.089844,0 -40,17.910156 -40,40 0,22.08984 17.910156,40 40,40 22.089843,0 40.000001,-17.91016 40.000001,-40 0,-22.089844 -17.910158,-40 -40.000001,-40 z m 0,32 c 4.417969,0 8,3.582031 8,8 0,4.417969 -3.582031,8 -8,8 -4.417969,0 -8,-3.582031 -8,-8 0,-4.417969 3.582031,-8 8,-8 z m 0,0"
             fill="#c0bfbc"
             id="path3146" />
        </g>
      </g>
      <g
         clip-path="url(#d)"
         id="g3156">
        <g
           clip-path="url(#e)"
           id="g3154">
          <path
             d="m 64.761719,42 c -22.089844,0 -40,17.910156 -40,40 0,22.08984 17.910156,40 40,40 22.089843,0 40.000001,-17.91016 40.000001,-40 0,-22.089844 -17.910158,-40 -40.000001,-40 z m 0,32 c 4.417969,0 8,3.582031 8,8 0,4.417969 -3.582031,8 -8,8 -4.417969,0 -8,-3.582031 -8,-8 0,-4.417969 3.582031,-8 8,-8 z m 0,0"
             fill="#deddda"
             id="path3152" />
        </g>
      </g>
      <g
         clip-path="url(#f)"
         id="g3162">
        <g
           clip-path="url(#g)"
           id="g3160">
          <path
             d="m 64.761719,44 c -20.988281,0 -38,17.011719 -38,38 0,20.98828 17.011719,38 38,38 C 85.75,120 102.76172,102.98828 102.76172,82 102.76172,61.011719 85.75,44 64.761719,44 Z m 0,26 c 6.628906,0 12,5.371094 12,12 0,6.628906 -5.371094,12 -12,12 -6.628907,0 -12,-5.371094 -12,-12 0,-6.628906 5.371093,-12 12,-12 z m 0,0"
             fill="#f6f5f4"
             id="path3158" />
        </g>
      </g>
    </g>
    <g
       id="g6364"
       transform="matrix(0.05262405,0.02759665,-0.02759665,0.05262405,56.982053,47.100059)">
      <g
         clip-path="url(#a-35)"
         id="g6308">
        <g
           clip-path="url(#b-6)"
           id="g6306">
          <path
             d="m 64,6.46875 c 20.988281,0 38,16.984375 38,37.941406 v 39.664063 c 0,20.957031 -17.011719,37.941411 -38,37.941411 -20.988281,0 -38,-16.98438 -38,-37.941411 V 44.410156 C 26,23.453125 43.011719,6.46875 64,6.46875 Z m 0,0"
             fill="url(#c)"
             id="path6304"
             style="fill:url(#c-2)" />
        </g>
      </g>
      <g
         clip-path="url(#d-9)"
         id="g6314">
        <g
           clip-path="url(#e-1)"
           id="g6312">
          <path
             d="m 63.984375,3.710938 c 20.980469,0 37.988285,16.476562 37.988285,36.800781 v 38.476562 c 0,20.324219 -17.007816,36.800779 -37.988285,36.800779 C 43.007812,115.78906 26,99.3125 26,78.988281 V 40.511719 C 26,20.1875 43.007812,3.710938 63.984375,3.710938 Z m 0,0"
             fill="url(#f)"
             id="path6310"
             style="fill:url(#f-2)" />
        </g>
      </g>
      <g
         clip-path="url(#g-7)"
         id="g6320">
        <g
           clip-path="url(#h)"
           id="g6318">
          <path
             d="m 62.640625,-2.394531 h 0.71875 C 63.714844,-2.394531 64,-1.8125 64,-1.09375 v 17.8125 c 0,0.714844 -0.285156,1.296875 -0.640625,1.296875 h -0.71875 C 62.285156,18.015625 62,17.433594 62,16.71875 v -17.8125 c 0,-0.71875 0.285156,-1.300781 0.640625,-1.300781 z m 0,0"
             fill="#deddda"
             id="path6316" />
        </g>
      </g>
      <g
         clip-path="url(#i)"
         id="g6326">
        <g
           clip-path="url(#j)"
           id="g6324">
          <path
             d="m 64.640625,-2.394531 h 0.71875 C 65.714844,-2.394531 66,-1.8125 66,-1.09375 v 17.8125 c 0,0.714844 -0.285156,1.296875 -0.640625,1.296875 h -0.71875 C 64.289062,18.015625 64,17.433594 64,16.71875 v -17.8125 c 0,-0.71875 0.289062,-1.300781 0.640625,-1.300781 z m 0,0"
             fill="#c3c2bf"
             id="path6322" />
        </g>
      </g>
      <g
         clip-path="url(#k)"
         id="g6332">
        <g
           clip-path="url(#l)"
           id="g6330">
          <path
             d="m 64,16 c 4.417969,0 8,3.691406 8,8.242188 V 49.757812 C 72,54.308594 68.417969,58 64,58 59.582031,58 56,54.308594 56,49.757812 V 24.242188 C 56,19.691406 59.582031,16 64,16 Z m 0,0"
             fill="#36343d"
             id="path6328" />
        </g>
      </g>
      <g
         clip-path="url(#m)"
         id="g6338">
        <g
           clip-path="url(#n)"
           id="g6336">
          <path
             d="m 68.828125,22.660156 c 0,2.632813 -2.167969,4.765625 -4.84375,4.765625 -2.675781,0 -4.84375,-2.132812 -4.84375,-4.765625 0,-2.628906 2.167969,-4.765625 4.84375,-4.765625 2.675781,0 4.84375,2.136719 4.84375,4.765625 z m 0,0"
             fill="#c0bfbc"
             fill-opacity="0.101961"
             id="path6334" />
        </g>
      </g>
    </g>
    <g
       id="g8256"
       transform="matrix(0.04720383,0,0,0.04720383,15.523591,24.108906)">
      <path
         d="m 124,64.042969 c 0,-33.140625 -26.863281,-60 -60,-60 -33.136719,0 -60,26.859375 -60,60 0,33.136719 26.863281,60.000001 60,60.000001 33.136719,0 60,-26.863282 60,-60.000001 z m 0,0"
         fill="url(#a)"
         id="path8220"
         style="fill:url(#a-8)" />
      <path
         d="m 64,97.113281 c -18.265625,0 -33.070312,-14.808593 -33.070312,-33.070312 0,-18.265625 14.804687,-33.070313 33.070312,-33.070313 18.265625,0 33.070312,14.804688 33.070312,33.070313 0,18.261719 -14.804687,33.070312 -33.070312,33.070312 z m 0,0"
         id="path8222" />
      <path
         d="M 92.925781,64.042969 C 92.925781,48.066406 79.976562,35.117188 64,35.117188 c -15.976562,0 -28.925781,12.949218 -28.925781,28.925781 0,15.972656 12.949219,28.921875 28.925781,28.921875 15.976562,0 28.925781,-12.949219 28.925781,-28.921875 z m 0,0"
         fill="url(#b)"
         id="path8224"
         style="fill:url(#b-79)" />
      <path
         d="M 92.925781,64.042969 C 92.925781,48.066406 79.976562,35.117188 64,35.117188 c -15.976562,0 -28.925781,12.949218 -28.925781,28.925781 0,15.972656 12.949219,28.921875 28.925781,28.921875 15.976562,0 28.925781,-12.949219 28.925781,-28.921875 z m 0,0"
         fill="url(#c)"
         id="path8226"
         style="fill:url(#c-20)" />
      <path
         d="m 64,50.976562 c 7.214844,0 13.066406,5.847657 13.066406,13.066407 0,7.214843 -5.851562,13.0625 -13.066406,13.0625 -7.214844,0 -13.066406,-5.847657 -13.066406,-13.0625 0,-7.21875 5.851562,-13.066407 13.066406,-13.066407 z m 0,0"
         id="path8228" />
      <g
         fill="#ffffff"
         id="g8236">
        <path
           d="m 62.558594,53.859375 c 0,-4.777344 -3.875,-8.652344 -8.652344,-8.652344 -4.777344,0 -8.648438,3.875 -8.648438,8.652344 0,4.777344 3.871094,8.648437 8.648438,8.648437 4.777344,0 8.652344,-3.871093 8.652344,-8.648437 z m 0,0"
           fill-opacity="0.831373"
           id="path8230" />
        <path
           d="m 81.300781,76.925781 c 0,-2.386719 -1.9375,-4.324219 -4.324219,-4.324219 -2.390624,0 -4.324218,1.9375 -4.324218,4.324219 0,2.390625 1.933594,4.328125 4.324218,4.328125 2.386719,0 4.324219,-1.9375 4.324219,-4.328125 z m 0,0"
           fill-opacity="0.545098"
           id="path8232" />
        <path
           d="m 73.371094,70.4375 c 0,-1.589844 -1.289063,-2.882812 -2.882813,-2.882812 -1.59375,0 -2.882812,1.292968 -2.882812,2.882812 0,1.59375 1.289062,2.886719 2.882812,2.886719 1.59375,0 2.882813,-1.292969 2.882813,-2.886719 z m 0,0"
           fill-opacity="0.603922"
           id="path8234" />
      </g>
      <path
         d="m 457.47268,1296.628 c 0,23.7486 -19.25487,42.9995 -42.99954,42.9995 -23.74858,0 -43.00345,-19.2509 -43.00345,-42.9995 0,-23.7486 19.25487,-42.9995 43.00345,-42.9995 23.74467,0 42.99954,19.2509 42.99954,42.9995 z m 0,0"
         fill="none"
         stroke="url(#d)"
         stroke-width="9.99999"
         transform="matrix(0,0.997921,-0.997921,0,1357.9327,-349.5686)"
         id="path8238"
         style="stroke:url(#d-2)" />
    </g>
  </g>
  <g
     id="layer4"
     style="display:inline;opacity:0.51">
    <g
       id="g5627"
       transform="matrix(0.10726842,-0.07857844,0.07857844,0.10726842,9.9153326,44.593312)"
       style="opacity:1">
      <path
         d="M 25.877,220.09191 16.000737,268.00116 51.40397,224.00154"
         fill="none"
         stroke="#77767b"
         stroke-linejoin="round"
         stroke-width="32"
         transform="matrix(-0.955178,0,0,0.955175,125.02575,-155.26536)"
         id="path5546" />
      <path
         d="M 90.874,86.094187 81.001827,134.00344 116.40506,90.00381"
         fill="none"
         stroke="#77767b"
         stroke-linejoin="round"
         stroke-width="32"
         transform="matrix(0.955178,0,0,0.955175,-59.324328,-27.274081)"
         id="path5548" />
      <path
         d="M 60.503906,65.648438 29.953125,103.61328 c -3.6875,4.57031 -9.664063,6.6211 -15.378906,5.28125 C 8.859375,107.55859 4.414062,103.0625 3.140625,97.332031 l -0.0625,0.304688 c -1.417969,6.910161 2.074219,13.894531 8.457031,16.902341 6.378906,3.00782 13.992188,1.25391 18.417969,-4.23828 L 63.769531,68.273438 Z m 6.78125,0 -3.265625,2.625 33.816407,42.027342 c 4.425782,5.49219 12.039062,7.2461 18.417972,4.23828 6.38281,-3.00781 9.875,-9.99218 8.45703,-16.902341 l -0.0625,-0.304688 c -1.27344,5.730469 -5.71875,10.226559 -11.4336,11.562499 -5.71484,1.33985 -11.6914,-0.71094 -15.378902,-5.28125 z m 0,0"
         fill="url(#a)"
         id="path5550"
         style="fill:url(#a-3)" />
      <g
         fill="#5e5c64"
         id="g5562">
        <path
           d="m 54.34375,55.828125 c 0,11.605469 -9.410156,21.015625 -21.015625,21.015625 -11.605469,0 -21.011719,-9.410156 -21.011719,-21.015625 0,-11.605469 9.40625,-21.011719 21.011719,-21.011719 11.605469,0 21.015625,9.40625 21.015625,21.011719 z m 0,0"
           id="path5552" />
        <path
           d="m 60.074219,85.4375 c 0,8.441406 -6.84375,15.28516 -15.285157,15.28516 -8.4375,0 -15.28125,-6.843754 -15.28125,-15.28516 0,-8.4375 6.84375,-15.28125 15.28125,-15.28125 8.441407,0 15.285157,6.84375 15.285157,15.28125 z m 0,0"
           id="path5554" />
        <path
           d="m 98.28125,85.4375 c 0,8.441406 -6.84375,15.28516 -15.285156,15.28516 -8.4375,0 -15.28125,-6.843754 -15.28125,-15.28516 0,-8.4375 6.84375,-15.28125 15.28125,-15.28125 8.441406,0 15.285156,6.84375 15.285156,15.28125 z m 0,0"
           id="path5556" />
        <path
           d="m 46.699219,72.066406 h 34.386719 v 15.28125 H 46.699219 Z m 0,0"
           id="path5558" />
        <path
           d="m 115.47266,55.828125 c 0,11.605469 -9.40625,21.015625 -21.011722,21.015625 -11.605469,0 -21.015626,-9.410156 -21.015626,-21.015625 0,-11.605469 9.410157,-21.011719 21.015626,-21.011719 11.605472,0 21.011722,9.40625 21.011722,21.011719 z m 0,0"
           id="path5560" />
      </g>
      <path
         d="M 46.699219,45.320312 H 81.085938 V 85.4375 H 46.699219 Z m 0,0"
         fill="#deddda"
         id="path5564" />
      <path
         d="m 60.074219,83.527344 c 0,8.441406 -6.84375,15.285156 -15.285157,15.285156 -8.4375,0 -15.28125,-6.84375 -15.28125,-15.285156 0,-8.4375 6.84375,-15.28125 15.28125,-15.28125 8.441407,0 15.285157,6.84375 15.285157,15.28125 z m 0,0"
         fill="#deddda"
         id="path5566" />
      <path
         d="m 98.28125,83.527344 c 0,8.441406 -6.84375,15.285156 -15.285156,15.285156 -8.4375,0 -15.28125,-6.84375 -15.28125,-15.285156 0,-8.4375 6.84375,-15.28125 15.28125,-15.28125 8.441406,0 15.285156,6.84375 15.285156,15.28125 z m 0,0"
         fill="#deddda"
         id="path5568" />
      <path
         d="m 33.328125,32 c -11.605469,0 -21.011719,9.398438 -21.011719,20.988281 0,11.59375 9.40625,20.988281 21.011719,20.988281 v 0.957032 h 61.132813 v -0.957032 c 11.605472,0 21.011722,-9.394531 21.011722,-20.988281 C 115.47266,41.398438 106.06641,32 94.460938,32 Z m 0,0"
         fill="#deddda"
         id="path5570" />
      <path
         d="m 32,40 c -1.109375,0 -2,0.890625 -2,2 v 6 h -6 c -1.109375,0 -2,0.890625 -2,2 v 4 c 0,1.109375 0.890625,2 2,2 h 6 v 6 c 0,1.109375 0.890625,2 2,2 h 4 c 1.109375,0 2,-0.890625 2,-2 v -6 h 6 c 1.109375,0 2,-0.890625 2,-2 v -4 c 0,-1.109375 -0.890625,-2 -2,-2 h -6 v -6 c 0,-1.109375 -0.890625,-2 -2,-2 z m 0,0"
         fill="#3d3846"
         id="path5572" />
      <path
         d="m 32,38 c -1.109375,0 -2,0.890625 -2,2 v 6 h -6 c -1.109375,0 -2,0.890625 -2,2 v 4 c 0,1.109375 0.890625,2 2,2 h 6 v 6 c 0,1.109375 0.890625,2 2,2 h 4 c 1.109375,0 2,-0.890625 2,-2 v -6 h 6 c 1.109375,0 2,-0.890625 2,-2 v -4 c 0,-1.109375 -0.890625,-2 -2,-2 h -6 v -6 c 0,-1.109375 -0.890625,-2 -2,-2 z m 0,0"
         fill="#5e5c64"
         id="path5574" />
      <path
         d="m 108,54 v 2 c 0,3.324219 -2.67578,6 -6,6 -3.324219,0 -6,-2.675781 -6,-6 v -2 z m 0,0"
         fill="#c01c28"
         id="path5576" />
      <path
         d="m 96,54 c 0,3.3125 2.6875,6 6,6 3.3125,0 6,-2.6875 6,-6 0,-3.3125 -2.6875,-6 -6,-6 -3.3125,0 -6,2.6875 -6,6 z m 0,0"
         fill="#ed333b"
         id="path5578" />
      <path
         d="m 92,46 v 2 c 0,3.324219 -2.675781,6 -6,6 -3.324219,0 -6,-2.675781 -6,-6 v -2 z m 0,0"
         fill="#1a5fb4"
         id="path5580" />
      <path
         d="m 80,46 c 0,3.3125 2.6875,6 6,6 3.3125,0 6,-2.6875 6,-6 0,-3.3125 -2.6875,-6 -6,-6 -3.3125,0 -6,2.6875 -6,6 z m 0,0"
         fill="#3584e4"
         id="path5582" />
      <path
         d="m 93.03125,83.984375 c 0,5.535156 -4.484375,10.019531 -10.015625,10.019531 -5.535156,0 -10.019531,-4.484375 -10.019531,-10.019531 0,-5.53125 4.484375,-10.015625 10.019531,-10.015625 5.53125,0 10.015625,4.484375 10.015625,10.015625 z m 0,0"
         fill="#3d3846"
         id="path5584" />
      <path
         d="M 93.03125,81.980469 C 93.03125,87.515625 88.546875,92 83.015625,92 77.480469,92 72.996094,87.515625 72.996094,81.980469 c 0,-5.53125 4.484375,-10.015625 10.019531,-10.015625 5.53125,0 10.015625,4.484375 10.015625,10.015625 z m 0,0"
         fill="#5e5c64"
         id="path5586" />
      <path
         d="M 83.015625,73.96875 C 78.589844,73.96875 75,77.554688 75,81.980469 c 0,4.429687 3.589844,8.015625 8.015625,8.015625 4.425781,0 8.011719,-3.585938 8.011719,-8.015625 0,-4.425781 -3.585938,-8.011719 -8.011719,-8.011719 z m 0,0"
         fill="url(#c)"
         id="path5588"
         style="fill:url(#c-6)" />
      <path
         d="m 54,83.984375 c 0,5.535156 -4.484375,10.019531 -10.019531,10.019531 -5.53125,0 -10.015625,-4.484375 -10.015625,-10.019531 0,-5.53125 4.484375,-10.015625 10.015625,-10.015625 C 49.515625,73.96875 54,78.453125 54,83.984375 Z m 0,0"
         fill="#3d3846"
         id="path5590" />
      <path
         d="M 54,81.980469 C 54,87.515625 49.515625,92 43.980469,92 38.449219,92 33.964844,87.515625 33.964844,81.980469 c 0,-5.53125 4.484375,-10.015625 10.015625,-10.015625 C 49.515625,71.964844 54,76.449219 54,81.980469 Z m 0,0"
         fill="#5e5c64"
         id="path5592" />
      <path
         d="m 43.980469,73.96875 c -4.425781,0 -8.011719,3.585938 -8.011719,8.011719 0,4.429687 3.585938,8.015625 8.011719,8.015625 4.429687,0 8.015625,-3.585938 8.015625,-8.015625 0,-4.425781 -3.585938,-8.011719 -8.015625,-8.011719 z m 0,0"
         fill="url(#d)"
         id="path5594"
         style="fill:url(#d-5)" />
    </g>
    <g
       id="g7541"
       transform="matrix(0.09029643,-0.04830135,0.04830135,0.09029643,21.515863,7.5632982)">
      <g
         clip-path="url(#a-0)"
         id="g7503">
        <g
           clip-path="url(#b-9)"
           id="g7501">
          <path
             d="M 44.664062,70.726562 H 83.5625 C 85.464844,70.726562 87,72.25 87,74.140625 V 118.58594 C 87,120.47656 85.464844,122 83.5625,122 H 44.664062 c -1.902343,0 -3.4375,-1.52344 -3.4375,-3.41406 V 74.140625 c 0,-1.890625 1.535157,-3.414063 3.4375,-3.414063 z m 0,0"
             fill="url(#c)"
             id="path7499"
             style="fill:url(#c-3)" />
        </g>
      </g>
      <g
         clip-path="url(#d-6)"
         id="g7509">
        <g
           clip-path="url(#e-0)"
           id="g7507">
          <path
             d="M 44.664062,68.726562 H 83.5625 C 85.464844,68.726562 87,70.25 87,72.140625 V 116.58594 C 87,118.47656 85.464844,120 83.5625,120 H 44.664062 c -1.902343,0 -3.4375,-1.52344 -3.4375,-3.41406 V 72.140625 c 0,-1.890625 1.535157,-3.414063 3.4375,-3.414063 z m 0,0"
             fill="#77767b"
             id="path7505" />
        </g>
      </g>
      <g
         clip-path="url(#f-6)"
         id="g7515">
        <g
           clip-path="url(#g-2)"
           id="g7513">
          <path
             d="M 41.226562,55.164062 H 87 V 108.57813 H 41.226562 Z m 0,0"
             fill="#434348"
             fill-opacity="0.509804"
             id="path7511" />
        </g>
      </g>
      <path
         d="M 120,21.613281 V 94.386719 C 120,99.695312 115.70313,104 110.40625,104 H 17.59375 C 12.296875,104 8,99.695312 8,94.386719 V 21.613281 C 8,16.304688 12.296875,12 17.59375,12 h 92.8125 C 115.70313,12 120,16.304688 120,21.613281 Z m 0,0"
         fill="url(#h)"
         id="path7517"
         style="fill:url(#h-6)" />
      <path
         d="M 120,21.613281 V 90.386719 C 120,95.695312 115.70313,100 110.40625,100 H 17.59375 C 12.296875,100 8,95.695312 8,90.386719 V 21.613281 C 8,16.304688 12.296875,12 17.59375,12 h 92.8125 C 115.70313,12 120,16.304688 120,21.613281 Z m 0,0"
         fill="#241f31"
         id="path7519" />
      <path
         d="M 17.378906,14 H 110.62109 C 114.69531,14 118,17.3125 118,21.394531 V 90.605469 C 118,94.6875 114.69531,98 110.62109,98 H 17.378906 C 13.304688,98 10,94.6875 10,90.605469 V 21.394531 C 10,17.3125 13.304688,14 17.378906,14 Z m 0,0"
         fill="url(#i)"
         id="path7521"
         style="fill:url(#i-1)" />
    </g>
  </g>
</svg>
